<?xml version="1.0" encoding="utf-8"?>
<!-- Generator: Adobe Illustrator 26.0.3, SVG Export Plug-In . SVG Version: 6.00 Build 0)  -->
<svg version="1.1" id="Layer_1" xmlns="http://www.w3.org/2000/svg" xmlns:xlink="http://www.w3.org/1999/xlink" x="0px" y="0px"
	 viewBox="0 0 2000 508.2" style="enable-background:new 0 0 2000 508.2;" xml:space="preserve">
<style type="text/css">
	.st0{fill:#323D4B;}
	.st1{fill:#F9911E;}
</style>
<path class="st0" d="M401.7,252.5H350v88.9h-94.7V6.7h153c91.3,0,148.7,47.3,148.7,123.9c0,49.3-23.9,85.6-65.5,105.7l72.2,105.2
	H462.4L401.7,252.5z M402.6,81.3H350v98h52.6c39.2,0,58.8-18.2,58.8-48.8C461.5,99.5,441.9,81.3,402.6,81.3"/>
<polygon class="st0" points="1273.4,6.7 1273.4,341.4 1195.5,341.4 1047.7,163.1 1047.7,341.4 954.9,341.4 954.9,6.7 1032.9,6.7
	1180.6,185.1 1180.6,6.7 "/>
<path class="st1" d="M1592.4,266.4v75.1h-260.6v-59.3L1457.1,165c26.8-24.9,30.6-40.2,30.6-54c0-21.5-14.3-34.4-43-34.4
	c-24.4,0-46.4,11-59.8,32.5l-70.3-39.2C1339.9,27.7,1387.2,0,1453.2,0c77,0,130.1,39.7,130.1,101.9c0,32.5-9.1,62.2-56.9,106.2
	l-63.1,58.3H1592.4z"/>
<polygon class="st1" points="1933.4,277.4 1883.6,277.4 1883.6,341.4 1791.3,341.4 1791.3,277.4 1614.4,277.4 1614.4,215.7
	1764.6,6.7 1862.6,6.7 1726.3,202.3 1794.2,202.3 1794.2,145.4 1883.6,145.4 1883.6,202.3 1933.4,202.3 "/>
<path class="st0" d="M753.8,6.6c-92.5,0-167.6,75-167.6,167.6c0,92.5,75,167.6,167.6,167.6c92.5,0,167.6-75,167.6-167.6
	C921.4,81.6,846.4,6.6,753.8,6.6 M753.8,309.2c-74.5,0-135-60.6-135-135s60.6-135,135-135c74.5,0,135,60.6,135,135
	S828.3,309.2,753.8,309.2"/>
<path class="st0" d="M753.8,60.2c-62.9,0-114,51.1-114,114c0,62.9,51.1,114,114,114c62.9,0,114-51.1,114-114
	C867.8,111.3,816.7,60.2,753.8,60.2 M753.8,197.4c-12.8,0-23.3-10.4-23.3-23.3c0-12.8,10.4-23.3,23.3-23.3
	c12.8,0,23.3,10.4,23.3,23.3C777.1,187,766.7,197.4,753.8,197.4"/>
<path class="st1" d="M753.8,39.1c-74.5,0-135,60.6-135,135s60.6,135,135,135c74.5,0,135-60.6,135-135S828.3,39.1,753.8,39.1
	 M753.8,288.2c-62.9,0-114-51.1-114-114c0-62.9,51.1-114,114-114c62.9,0,114,51.1,114,114C867.8,237,816.7,288.2,753.8,288.2"/>
<polyline class="st0" points="0,7 0,101.7 50.1,126.4 50.1,222 0,246.8 0,341.4 194.9,341.4 194.9,246.8 144.8,222 144.8,126.4
	194.9,101.7 194.9,7 "/>
<path class="st0" d="M2000,309.1c0,18.1-14.2,32.3-32.7,32.3c-18.3,0-32.9-14.2-32.9-32.3c0-17.7,14.6-31.9,32.9-31.9
	C1985.8,277.2,2000,291.4,2000,309.1 M1942.5,309.1c0,14.2,10.5,25.5,24.9,25.5c14,0,24.4-11.3,24.4-25.3
	c0-14.2-10.3-25.7-24.5-25.7S1942.5,295.1,1942.5,309.1 M1962.2,325.9h-7.4v-31.9c2.9-0.6,7-1,12.3-1c6,0,8.8,1,11.1,2.3
	c1.8,1.4,3.1,3.9,3.1,7c0,3.5-2.7,6.2-6.6,7.4v0.4c3.1,1.2,4.9,3.5,5.8,7.8c1,4.9,1.6,6.8,2.3,8h-8c-1-1.2-1.6-4.1-2.5-7.8
	c-0.6-3.5-2.5-5.1-6.6-5.1h-3.5V325.9z M1962.4,307.7h3.5c4.1,0,7.4-1.4,7.4-4.7c0-2.9-2.1-4.9-6.8-4.9c-1.9,0-3.3,0.2-4.1,0.4
	V307.7z"/>
<polygon class="st0" points="20,415.8 20,448.6 71.9,448.6 71.9,465.5 20,465.5 20,506.7 0,506.7 0,399.1 78.6,399.1 78.6,415.8 "/>
<rect x="111.8" y="399.1" class="st0" width="20" height="107.6"/>
<polygon class="st0" points="196.4,416 160.8,416 160.8,399.1 252.1,399.1 252.1,416 216.4,416 216.4,506.7 196.4,506.7 "/>
<polygon class="st0" points="376.6,399.1 376.6,506.7 360.1,506.7 300.8,433.8 300.8,506.7 281,506.7 281,399.1 297.4,399.1
	356.8,471.9 356.8,399.1 "/>
<polygon class="st0" points="500,489.9 500,506.7 419.3,506.7 419.3,399.1 497.8,399.1 497.8,415.8 439.3,415.8 439.3,443.8
	491.2,443.8 491.2,460.3 439.3,460.3 439.3,489.9 "/>
<path class="st0" d="M527,495.3l6.9-15.5c8.6,6.9,22.3,11.8,35.5,11.8c16.8,0,23.8-6,23.8-14c0-23.2-63.9-8-63.9-48
	c0-17.4,13.8-32.1,43.3-32.1c12.9,0,26.4,3.4,35.8,9.5l-6.3,15.5c-9.7-5.7-20.3-8.5-29.7-8.5c-16.6,0-23.4,6.5-23.4,14.6
	c0,22.9,63.8,8,63.8,47.5c0,17.2-14,32-43.5,32C552.7,508.2,536,503,527,495.3"/>
<path class="st0" d="M637.6,495.3l6.9-15.5c8.6,6.9,22.3,11.8,35.5,11.8c16.8,0,23.8-6,23.8-14c0-23.2-63.9-8-63.9-48
	c0-17.4,13.8-32.1,43.3-32.1c12.9,0,26.4,3.4,35.8,9.5l-6.3,15.5c-9.7-5.7-20.3-8.5-29.7-8.5c-16.6,0-23.4,6.5-23.4,14.6
	c0,22.9,63.8,8,63.8,47.5c0,17.2-14,32-43.5,32C663.2,508.2,646.5,503,637.6,495.3"/>
<polygon class="st0" points="879.8,460.6 852.6,460.6 852.6,487.5 836.1,487.5 836.1,460.6 808.9,460.6 808.9,445.2 836.1,445.2
	836.1,418.3 852.6,418.3 852.6,445.2 879.8,445.2 "/>
<path class="st0" d="M1044.6,506.7l-22-31.5c-1.4,0.2-2.8,0.2-4.1,0.2h-24.3v31.4h-20V399.1h44.3c28.3,0,45.8,14.4,45.8,38.3
	c0,16.3-8.3,28.3-22.9,34l24.7,35.4H1044.6z M1017.5,416h-23.4v42.9h23.4c17.5,0,26.6-8,26.6-21.5C1044.1,423.8,1035,416,1017.5,416
	"/>
<polygon class="st0" points="1181,489.9 1181,506.7 1100.4,506.7 1100.4,399.1 1178.9,399.1 1178.9,415.8 1120.3,415.8
	1120.3,443.8 1172.3,443.8 1172.3,460.3 1120.3,460.3 1120.3,489.9 "/>
<path class="st0" d="M1209,452.9c0-32.1,24.6-55.3,57.6-55.3c17.5,0,32.6,6.3,42.6,18l-12.9,12.1c-7.8-8.5-17.5-12.6-28.7-12.6
	c-22.3,0-38.4,15.7-38.4,37.8s16.1,37.8,38.4,37.8c11.2,0,20.9-4.1,28.7-12.8l12.9,12.3c-10,11.7-25.1,18-42.7,18
	C1233.6,508.2,1209,485,1209,452.9"/>
<path class="st0" d="M1332.3,452.9c0-31.8,24.6-55.3,57.9-55.3c33.4,0,58,23.4,58,55.3c0,32-24.6,55.3-58,55.3
	C1356.9,508.2,1332.3,484.7,1332.3,452.9 M1428,452.9c0-22-16.1-37.8-37.8-37.8c-21.7,0-37.8,15.8-37.8,37.8
	c0,22,16.1,37.8,37.8,37.8C1411.9,490.7,1428,474.9,1428,452.9"/>
<polygon class="st0" points="1578.2,399.1 1531.3,506.7 1511.7,506.7 1464.6,399.1 1486.3,399.1 1522.1,482.1 1558.2,399.1 "/>
<polygon class="st0" points="1684.1,489.9 1684.1,506.7 1603.4,506.7 1603.4,399.1 1682,399.1 1682,415.8 1623.4,415.8
	1623.4,443.8 1675.4,443.8 1675.4,460.3 1623.4,460.3 1623.4,489.9 "/>
<path class="st0" d="M1790.6,506.7l-22-31.5c-1.4,0.2-2.8,0.2-4.1,0.2h-24.3v31.4h-20V399.1h44.3c28.3,0,45.8,14.4,45.8,38.3
	c0,16.3-8.3,28.3-22.9,34l24.7,35.4H1790.6z M1763.6,416h-23.4v42.9h23.4c17.5,0,26.6-8,26.6-21.5
	C1790.2,423.8,1781.1,416,1763.6,416"/>
<polygon class="st0" points="1891.3,468.7 1891.3,506.7 1871.3,506.7 1871.3,469 1829.1,399.1 1850.4,399.1 1881.9,451.5
	1913.7,399.1 1933.4,399.1 "/>
</svg>
