<svg width="526" height="111" viewBox="0 0 526 111" fill="none" xmlns="http://www.w3.org/2000/svg">
<path d="M33.9656 13.8431L33.3056 14.2392C32.6192 14.6748 31.9855 15.1368 31.2067 15.6648L30.3354 16.2721L33.3056 19.4138L33.9524 18.9386C34.5729 18.4898 35.2725 18.041 35.9722 17.6185L36.8962 17.0113L33.9656 13.8431Z" fill="white"/>
<path d="M95.2302 26.3971L96.9331 24.8658L96.3655 24.2322C95.8111 23.5985 95.2434 22.9781 94.6758 22.3841L94.0554 21.7372L92.4053 23.1893L93.0257 23.889C93.5669 24.4698 94.1082 25.0902 94.6098 25.7107L95.2302 26.3971Z" fill="white"/>
<path d="M96.1012 81.4704C95.6259 82.1436 95.1375 82.7905 94.6359 83.4373L94.1475 84.0577L96.7876 86.8035L97.4608 86.0114C97.9889 85.391 98.5301 84.6914 99.0449 84.0445L99.5201 83.4241L96.88 80.5331L96.1012 81.4704Z" fill="white"/>
<path d="M77.2638 10.6355H75.9438L75.6401 12.4308C76.419 12.708 77.1846 12.9984 77.8975 13.2888C78.9139 13.7112 79.9832 14.2129 81.1712 14.8333L81.3692 14.9389H82.2537L82.6893 13.1964C80.9788 12.2597 79.2158 11.4223 77.409 10.6883L77.2638 10.6355Z" fill="white"/>
<path d="M78.7819 96.2553C78.0559 96.5985 77.343 96.9285 76.6698 97.2057C71.358 99.4355 65.6525 100.576 59.8917 100.559H58.8752V103.199H59.8521C65.9557 103.209 72.0095 102.099 77.7127 99.9251C78.5311 99.6214 79.3627 99.265 80.3528 98.8294L81.5409 98.3014L79.3892 95.9648L78.7819 96.2553Z" fill="white"/>
<path d="M22.1377 79.2659C19.1188 74.3948 17.0453 68.9983 16.0257 63.359C15.0102 57.601 15.1268 51.7003 16.369 45.9869C17.2496 41.968 18.6706 38.0869 20.5932 34.4495L20.91 33.8687L17.6758 30.3573L17.0686 31.4661C14.7174 35.6853 13.0257 40.2395 12.0523 44.9705C10.7477 51.2697 10.6894 57.7634 11.8807 64.0851C13.0968 70.3341 15.5325 76.2821 19.0487 81.5892L19.6427 82.4737L22.4941 79.9259L22.1377 79.2659Z" fill="white"/>
<path d="M107.454 46.317C106.154 40.1828 103.684 34.3565 100.18 29.1561L99.5865 28.2849L97.6855 29.9745L98.0816 30.6346C101.105 35.6348 103.14 41.1694 104.075 46.9375C104.518 49.8371 104.704 52.7703 104.629 55.7027V56.5212C104.629 56.9964 104.629 57.4584 104.55 57.8412L104.471 58.6597C104.471 59.1217 104.378 59.5837 104.326 59.9798C104.273 60.3758 104.246 60.5078 104.22 60.785C104.193 61.0622 104.088 61.709 104.022 62.1051L103.863 62.9103C103.784 63.3723 103.705 63.8212 103.599 64.2304C102.698 68.295 101.264 72.2231 99.3356 75.913L99.032 76.4938L101.91 79.5432L102.517 78.4475C108.048 68.6283 109.799 57.1261 107.441 46.1058L107.454 46.317Z" fill="white"/>
<path d="M86.1478 91.767C85.5538 92.2159 84.9993 92.6119 84.4449 92.9815L83.2437 93.7868L84.9465 95.5821L85.501 96.0837L86.2006 95.6877C86.8606 95.2652 87.5207 94.8164 88.2335 94.3676L89.118 93.7604L86.8078 91.305L86.1478 91.767Z" fill="white"/>
<path d="M60.9081 9.97538V7.01842H59.9972C57.0116 6.93438 54.0245 7.12439 51.0735 7.58605C46.9168 8.24104 42.8674 9.45321 39.0345 11.1898L37.8596 11.7179L40.777 14.82L41.3842 14.5296C44.6746 12.9498 48.1394 11.7624 51.7072 10.9918C54.4349 10.4155 57.21 10.0929 59.9972 10.0282L60.9081 9.97538Z" fill="white"/>
<path d="M39.3381 95.3972H36.5924L36.1436 97.1396C37.8772 98.0844 39.667 98.922 41.503 99.6478L41.6747 99.7138H44.6448L44.9616 97.9185C43.1239 97.2372 41.3335 96.4346 39.6021 95.516L39.3381 95.3972Z" fill="white"/>
<path d="M25.6755 84.1898L25.0814 83.4374L22.3357 85.8927L22.9429 86.5791C23.4974 87.2128 24.065 87.8992 24.6458 88.4272L25.2663 89.0477L27.9064 86.698L27.286 86.0115C26.6963 85.4307 26.1595 84.8235 25.6755 84.1898Z" fill="white"/>
<path d="M23.8801 29.1033C24.3553 28.4432 24.857 27.7832 25.3586 27.1628L25.8602 26.5291L22.8109 23.295L22.1508 24.1002C21.6228 24.7206 21.0948 25.4203 20.5799 26.0803L20.1179 26.7139L23.2333 30.0273L23.8801 29.1033Z" fill="white"/>
<path d="M19.0752 90.0377L17.7551 91.2389C18.2964 91.8462 18.8508 92.4534 19.4316 93.0342L20.7517 91.899C20.1445 91.2917 19.6032 90.6713 19.0752 90.0377Z" fill="#119DBB"/>
<path d="M103.718 89.2984L102.398 87.8596C101.896 88.5196 101.382 89.1796 100.867 89.8133L102.187 91.1333C102.706 90.5613 103.216 89.9497 103.718 89.2984Z" fill="#119DBB"/>
<path d="M101.526 19.5722C100.985 18.9518 100.431 18.3445 99.8632 17.7637L99.5859 18.0013C100.14 18.6085 100.682 19.2158 101.21 19.8494L101.526 19.5722Z" fill="#119DBB"/>
<path d="M14.9298 84.3877C11.1765 78.4506 8.60794 71.8432 7.36578 64.9299C5.09496 52.1989 7.48989 39.076 14.1113 27.9679L12.2368 25.9614C8.91048 31.3768 6.55614 37.3319 5.28007 43.5579C3.8021 50.738 3.74828 58.1383 5.12166 65.3391C6.49471 72.5199 9.2861 79.3548 13.3325 85.4438C13.5437 85.7474 13.7681 86.051 13.9793 86.3679L15.4314 85.0478L14.9298 84.3877Z" fill="#119DBB"/>
<path d="M105.394 25.605C109.143 31.6532 111.66 38.3824 112.8 45.4061C113.355 48.8975 113.585 52.4328 113.487 55.9667C113.487 56.8379 113.487 57.7224 113.355 58.6068C113.222 59.4913 113.209 60.3493 113.09 61.247C112.972 62.1446 112.879 62.9895 112.721 63.8871C112.562 64.7848 112.43 65.6164 112.232 66.5272C110.973 72.2616 108.821 77.7627 105.856 82.8301L107.361 84.4274C114.699 72.7051 117.193 58.59 114.318 45.0629C112.839 37.9801 109.991 31.254 105.936 25.2618C105.738 24.9846 105.526 24.7074 105.342 24.4302L104.88 24.8394L105.394 25.605Z" fill="#119DBB"/>
<path d="M15.8406 20.8132L17.6227 22.7273C18.1375 22.0672 18.6523 21.4072 19.1804 20.7736L17.4115 18.8991C16.8702 19.5327 16.3422 20.1663 15.8406 20.8132Z" fill="#119DBB"/>
<path d="M22.877 96.3608C23.8538 97.2189 24.8703 98.0373 25.8999 98.8294H28.2628C27.22 98.0373 26.1903 97.2321 25.2003 96.3608H22.877Z" fill="#119DBB"/>
<path d="M35.3512 7.67844C39.9801 5.20353 44.9353 3.39477 50.07 2.30575C57.0278 0.842144 64.2071 0.774838 71.1911 2.10774C74.6858 2.77616 78.1012 3.80698 81.3821 5.1835L81.8441 5.40792H82.689C79.0404 3.69341 75.2221 2.36609 71.2967 1.4477C64.2399 -0.189856 56.9322 -0.44092 49.7796 0.708463C44.19 1.61859 38.7778 3.40037 33.7407 5.98875L35.3512 7.67844Z" fill="#119DBB"/>
<path d="M84.8144 103.067C83.2325 103.926 81.6065 104.701 79.9433 105.39C73.372 108.123 66.3077 109.471 59.1918 109.35C55.6401 109.285 52.1031 108.874 48.6312 108.123C45.2372 107.4 41.9279 106.325 38.7571 104.915H36.1169C36.7638 105.218 37.437 105.522 38.097 105.799C38.7571 106.077 39.7867 106.446 40.6184 106.763C41.45 107.08 42.3345 107.331 43.1925 107.621C44.0506 107.911 44.9218 108.109 45.8327 108.36C46.7435 108.611 47.5884 108.769 48.4728 108.967C55.5539 110.426 62.8488 110.516 69.9636 109.232C73.5167 108.602 77.0003 107.629 80.3657 106.327C82.1663 105.634 83.9289 104.845 85.646 103.964L84.8144 103.067Z" fill="#119DBB"/>
<path d="M22.1641 14.0149H25.9659C26.9823 13.1568 28.0384 12.3384 29.1208 11.5595H25.0814C24.0518 12.3384 23.1013 13.1964 22.1641 14.0149Z" fill="#119DBB"/>
<path d="M95.9427 14.0149C94.9527 13.17 93.9494 12.3384 92.9198 11.5595H92.4709C93.5138 12.3384 94.5171 13.17 95.5071 14.0149H95.9427Z" fill="#119DBB"/>
<path d="M96.9856 96.3608H94.5039C93.527 97.2189 92.5238 98.0505 91.4941 98.8294H93.9495C95.0451 97.9977 95.9956 97.1793 96.9856 96.3608Z" fill="#119DBB"/>
<path d="M87.9035 101.866H119.783L71.495 50.5676L118.529 8.48373H63.0862V17.1566H95.9824L65.6207 44.3633L31.8797 8.48373H0L48.2882 59.7817L1.32007 101.866H56.7631V93.2455H23.7613L54.1229 66.052L87.9035 101.866ZM28.1571 17.1566L99.837 93.3115H91.6261L19.9331 17.1566H28.1571Z" fill="#AD0021"/>
<path d="M173.866 40.6011H152.917V45.8813H173.866V61.5902H147.676V56.3099H168.626V51.0296H147.676V35.3604H173.866V40.6011Z" fill="white"/>
<path d="M196.915 35.3604V45.8417H212.624V35.3604H217.904V61.5506H212.624V51.0692H196.915V61.5506H191.635V35.3604H196.915Z" fill="white"/>
<path d="M248.767 61.5505V56.2702H253.837L248.767 43.1751L241.639 61.5109H235.672L246.141 35.3207H251.421L261.902 61.5109L248.767 61.5505Z" fill="white"/>
<path d="M279.67 61.5506V35.3604H300.62L305.9 40.6407V56.3495L300.62 61.6298L279.67 61.5506ZM284.951 56.2703H298.046L300.686 53.6302V43.4656L298.046 40.6011H284.951V56.2703Z" fill="white"/>
<path d="M334.137 61.5506V51.0692L323.668 35.3604H330.269L336.869 44.5217L343.47 35.3604H349.819L339.338 51.0692V61.5506H334.137Z" fill="white"/>
<path d="M393.856 40.6011H372.907V45.8813H393.856V61.5902H367.666V56.3099H388.616V51.0296H367.666V35.3604H393.856V40.6011Z" fill="white"/>
<path d="M427.373 35.3604V61.5506H422.093V35.3604H427.373Z" fill="white"/>
<path d="M455.662 61.5506V35.3604H476.612L481.892 40.6407V56.3495L476.612 61.6298L455.662 61.5506ZM460.942 56.2703H474.038L476.678 53.6302V43.4656L474.038 40.6011H460.942V56.2703Z" fill="white"/>
<path d="M504.901 51.0692V56.3495H525.85V61.6298H499.66V35.3604H525.85V40.6407H504.901V45.921H520.61V51.2012L504.901 51.0692Z" fill="white"/>
</svg>
